# xmcd
#
# Track frame offsets: 
#        150
#        10320
#        20111
#        36411
#        47534
#        66038
#        79903
#        96189
#        110555
#        127533
#        137939
#        147864
#
# Disc length: 2138 seconds
#
# Revision: 0
# Processed by: cddbd v1.5.2PL0 Copyright (c) Steve Scherf et al.
# Submitted via: ExactAudioCopy v1.0b4
#
DISCID=a208580c
DTITLE=Top Topham - Ascension Heights (LP)
DYEAR=1983
DGENRE=Blues
TTITLE0=Sawbuk
TTITLE1=Mini-Minor-Mo
TTITLE2=Hop House
TTITLE3=Ridin' The Blinds
TTITLE4=Hot Ginger
TTITLE5=Funks Elegy
TTITLE6=Ascension Heights
TTITLE7=Tuxedo Junction
TTITLE8=Globetrottin'
TTITLE9=Spider Drag
TTITLE10=Mean Old Pullman
TTITLE11=How Sweet It Is (To Be Loved By You)
EXTD=
EXTT0=
EXTT1=
EXTT2=
EXTT3=
EXTT4=
EXTT5=
EXTT6=
EXTT7=
EXTT8=
EXTT9=
EXTT10=
EXTT11=
PLAYORDER=
